<?xml version="1.0" encoding="utf-8"?>
<!-- Generator: Adobe Illustrator 25.3.1, SVG Export Plug-In . SVG Version: 6.00 Build 0)  -->
<svg version="1.1" id="Layer_1" xmlns="http://www.w3.org/2000/svg" xmlns:xlink="http://www.w3.org/1999/xlink" x="0px" y="0px"
	 viewBox="0 0 100 100" style="enable-background:new 0 0 100 100;" xml:space="preserve">
<style type="text/css">
	.st0{fill:#244C5D;}
</style>
<path class="st0" d="M49.5,93.9C49.5,93.9,49.5,93.9,49.5,93.9c-7.1,0-13.8-10.5-20.1-31c-4.6-15-7.3-30.1-7.3-30.3L20.2,22l4.1,9.9
	c10,24,17.9,35.7,24.3,35.7l0,0c7.5,0,14.1-15.8,22.4-35.7c2.2-5.3,4.5-10.8,7-16.4l4.1-9.3l-1.8,10C70.6,68.4,60.5,93.9,49.5,93.9z
	"/>
<path class="st0" d="M50,47c-7.3,0-13.3-6-13.3-13.3s6-13.3,13.3-13.3s13.3,6,13.3,13.3S57.3,47,50,47z"/>
</svg>
